<svg width="56" height="56" viewBox="0 0 56 56" fill="none" xmlns="http://www.w3.org/2000/svg">
<circle cx="28" cy="28" r="28" fill="white"/>
<path d="M35.334 30.8889C35.334 32.436 34.5145 33.9197 33.0559 35.0137C31.5973 36.1077 29.619 36.7222 27.5562 36.7222C25.4934 36.7222 23.5151 36.1077 22.0565 35.0137C20.5979 33.9197 19.7784 32.436 19.7784 30.8889" fill="#161C2D"/>
<path d="M34.5553 21.5556C34.5553 20.6965 35.0777 20.0001 35.722 20.0001C36.3663 20.0001 36.8887 20.6965 36.8887 21.5556C36.8887 22.4147 36.3663 23.1112 35.722 23.1112C35.0777 23.1112 34.5553 22.4147 34.5553 21.5556Z" fill="#161C2D"/>
<path d="M19.0007 21.5556C19.0007 20.6964 19.523 20 20.1673 20C20.8117 20 21.334 20.6964 21.334 21.5556C21.334 22.4147 20.8117 23.1111 20.1673 23.1111C19.523 23.1111 19.0007 22.4147 19.0007 21.5556Z" fill="#161C2D"/>
</svg>
